<?xml version="1.0" encoding="UTF-8" standalone="no"?>
<svg
   xmlns:dc="http://purl.org/dc/elements/1.1/"
   xmlns:cc="http://creativecommons.org/ns#"
   xmlns:rdf="http://www.w3.org/1999/02/22-rdf-syntax-ns#"
   xmlns:svg="http://www.w3.org/2000/svg"
   xmlns="http://www.w3.org/2000/svg"
   xmlns:sodipodi="http://sodipodi.sourceforge.net/DTD/sodipodi-0.dtd"
   xmlns:inkscape="http://www.inkscape.org/namespaces/inkscape"
   sodipodi:docname="turtle.svg"
   inkscape:version="1.0beta1 (32d4812, 2019-09-19)"
   id="svg1054"
   version="1.1"
   viewBox="0 0 74.122765 40.455433"
   height="40.455433mm"
   width="74.122765mm">
  <defs
     id="defs1048">
    <clipPath
       id="clipPath312"
       clipPathUnits="userSpaceOnUse">
      <path
         inkscape:connector-curvature="0"
         id="path310"
         d="m 965.27,3243.54 c 31.398,118.36 -3.825,237.08 12.589,356.46 8.489,61.65 -54.617,85.48 -99.605,65.92 9.707,21.22 -8.969,47.27 -33.332,42.29 -59.094,-12.08 -88.82,-79.09 -123.149,-122.08 -45.195,-56.58 -88.058,-116.72 -111.035,-186.22 -52.148,-157.71 176.953,-199.26 283.793,-203.41 29.512,-1.14 62.676,16.66 70.739,47.04" />
    </clipPath>
    <clipPath
       id="clipPath326"
       clipPathUnits="userSpaceOnUse">
      <path
         inkscape:connector-curvature="0"
         id="path324"
         d="m 1782.66,3297.72 c -2.81,122.43 -69.7,226.64 -87.18,345.86 -9.03,61.58 -76.27,66.88 -114.04,35.57 3.42,23.09 -21.77,42.9 -43.78,31.34 -53.39,-28.06 -63.28,-100.7 -84.28,-151.55 -27.64,-66.93 -52.07,-136.63 -54.78,-209.78 -6.15,-165.99 225.45,-142.08 329.22,-116.32 28.66,7.12 55.55,33.45 54.84,64.88" />
    </clipPath>
    <clipPath
       id="clipPath338"
       clipPathUnits="userSpaceOnUse">
      <path
         inkscape:connector-curvature="0"
         id="path336"
         d="m 2465.1,4107.21 c -38.69,203.04 -275.73,279.47 -451.95,212.12 -88.76,-33.92 -167.9,-97.18 -204.97,-186.12 -33.96,-81.46 -43.8,-169.22 -37.24,-256.18 -4.67,-14.09 -5.37,-30.12 -0.52,-47.42 44.03,-156.69 296.95,-116.09 413.99,-94.54 167.75,30.9 314.2,196.32 280.69,372.14" />
    </clipPath>
    <clipPath
       id="clipPath354"
       clipPathUnits="userSpaceOnUse">
      <path
         inkscape:connector-curvature="0"
         id="path352"
         d="m 711.703,3704.44 c 19.82,353.33 331.987,637.26 589.647,637.26 153.61,0 272.52,-75.71 386.49,-208.22 84.24,-100.94 178.39,-239.75 213.07,-384.87 0,0 22.95,-53.62 17.99,-53.62 0,0 -414.39,-362.81 -1207.197,9.45" />
    </clipPath>
  </defs>
  <sodipodi:namedview
     fit-margin-bottom="0"
     fit-margin-right="0"
     fit-margin-left="0"
     fit-margin-top="0"
     inkscape:window-maximized="0"
     inkscape:window-y="23"
     inkscape:window-x="0"
     inkscape:window-height="907"
     inkscape:window-width="1600"
     showgrid="false"
     inkscape:document-rotation="0"
     inkscape:current-layer="layer1"
     inkscape:document-units="mm"
     inkscape:cy="151.37856"
     inkscape:cx="127.27106"
     inkscape:zoom="1.1840072"
     inkscape:pageshadow="2"
     inkscape:pageopacity="0.0"
     borderopacity="1.0"
     bordercolor="#666666"
     pagecolor="#ffffff"
     id="base" />
  <metadata
     id="metadata1051">
    <rdf:RDF>
      <cc:Work
         rdf:about="">
        <dc:format>image/svg+xml</dc:format>
        <dc:type
           rdf:resource="http://purl.org/dc/dcmitype/StillImage" />
        <dc:title></dc:title>
      </cc:Work>
    </rdf:RDF>
  </metadata>
  <g
     transform="translate(-70.283855,-41.760379)"
     id="layer1"
     inkscape:groupmode="layer"
     inkscape:label="Layer 1">
    <g
       id="g1003"
       transform="matrix(0.26458333,0,0,0.26458333,57.273459,18.590517)">
      <path
         inkscape:connector-curvature="0"
         d="m 51.830665,189.21868 c 11.265733,1.73467 21.8224,2.81067 32.96,-0.34666 8.484799,-2.404 19.315595,-6.892 24.780665,-14.01867 1.9208,-2.50533 -0.69733,-6.18133 -3.512,-6.12133 -7.885866,0.16666 -15.025466,5.93733 -22.178665,8.79466 -9.948934,3.97334 -20.649467,3.176 -31.075466,4.48934 -3.704134,0.46666 -5.438,6.51466 -0.974534,7.20266"
         style="opacity:1;fill:#9ad322;fill-opacity:1;fill-rule:nonzero;stroke:none;stroke-width:0.133333;stop-opacity:1"
         id="path302" />
      <path
         inkscape:connector-curvature="0"
         d="m 152.76533,219.89201 c 0.11467,-16.328 -8.38533,-30.48266 -10.24,-46.44266 -0.95733,-8.24267 -9.8972,-9.21733 -15.0556,-5.196 0.548,-3.06267 -2.73067,-5.804 -5.71093,-4.35067 -7.22707,3.528 -8.83427,13.168 -11.8364,19.86134 -3.95107,8.81066 -7.48334,18.00266 -8.1364,27.73999 -1.48334,22.09734 29.4796,19.836 43.41133,16.816 3.848,-0.83466 7.53867,-4.23733 7.568,-8.428"
         style="opacity:1;fill:#8ea725;fill-opacity:1;fill-rule:nonzero;stroke:none;stroke-width:0.133333;stop-opacity:1"
         id="path304" />
      <g
         transform="matrix(0.13333333,0,0,-0.13333333,0,666.66667)"
         id="g306"
         style="opacity:1;stop-opacity:1">
        <g
           id="g308"
           clip-path="url(#clipPath312)">
          <path
             inkscape:connector-curvature="0"
             d="m 965.27,3243.54 c 31.398,118.36 -3.825,237.08 12.589,356.46 8.489,61.65 -54.617,85.48 -99.605,65.92 9.707,21.22 -8.969,47.27 -33.332,42.29 -59.094,-12.08 -88.82,-79.09 -123.149,-122.08 -45.195,-56.58 -88.058,-116.72 -111.035,-186.22 -52.148,-157.71 176.953,-199.26 283.793,-203.41 29.512,-1.14 62.676,16.66 70.739,47.04"
             style="fill:#9ad322;fill-opacity:1;fill-rule:nonzero;stroke:none"
             id="path314" />
          <path
             inkscape:connector-curvature="0"
             d="m 897.234,3196.45 c -0.902,0 -1.804,0.02 -2.703,0.05 -90.461,3.52 -268.566,33.85 -289.402,138.79 10.258,6.09 22.09,9.43 34.269,9.43 7.278,0 14.68,-1.19 21.946,-3.7 28.636,-9.92 45.926,-37.3 44.746,-66.1 12.633,17.49 32.918,27.95 54.332,27.95 7.195,0 14.519,-1.18 21.723,-3.67 28.617,-9.91 45.914,-37.28 44.765,-66.05 12.625,17.46 32.895,27.91 54.293,27.91 7.195,0 14.52,-1.18 21.723,-3.67 21.125,-7.31 36.258,-24.14 42.265,-44.02 -13.386,-10.89 -31.117,-16.92 -47.957,-16.92"
             style="fill:#d0ea7f;fill-opacity:1;fill-rule:nonzero;stroke:none"
             id="path316" />
        </g>
      </g>
      <path
         inkscape:connector-curvature="0"
         d="m 256.81466,206.53201 c -4.43733,-15.71333 -16.54267,-26.94133 -22.76933,-41.75333 -3.21467,-7.64933 -12.07334,-6.096 -15.90667,-0.796 -0.32667,-3.09466 -4.23867,-4.81466 -6.696,-2.588 -5.95867,5.4 -4.81733,15.10667 -5.836,22.372 -1.34267,9.56134 -2.17467,19.372 -0.0893,28.90667 4.72933,21.63733 33.83733,10.84266 46.37733,4.06133 3.46267,-1.87333 6.05867,-6.17067 4.92,-10.20267"
         style="opacity:1;fill:#8ea725;fill-opacity:1;fill-rule:nonzero;stroke:none;stroke-width:0.133333;stop-opacity:1"
         id="path318" />
      <g
         transform="matrix(0.13333333,0,0,-0.13333333,0,666.66667)"
         id="g320"
         style="opacity:1;stop-opacity:1">
        <g
           id="g322"
           clip-path="url(#clipPath326)">
          <path
             inkscape:connector-curvature="0"
             d="m 1782.66,3297.72 c -2.81,122.43 -69.7,226.64 -87.18,345.86 -9.03,61.58 -76.27,66.88 -114.04,35.57 3.42,23.09 -21.77,42.9 -43.78,31.34 -53.39,-28.06 -63.28,-100.7 -84.28,-151.55 -27.64,-66.93 -52.07,-136.63 -54.78,-209.78 -6.15,-165.99 225.45,-142.08 329.22,-116.32 28.66,7.12 55.55,33.45 54.84,64.88"
             style="fill:#9ad322;fill-opacity:1;fill-rule:nonzero;stroke:none"
             id="path328" />
          <path
             inkscape:connector-curvature="0"
             d="m 1582.93,3214.51 c -72.18,0 -143.43,16.48 -171.71,71.03 12.29,13.12 29.74,21.24 48.92,21.24 1.15,0 2.31,-0.03 3.47,-0.09 30.26,-1.54 54.5,-23.03 61.38,-51.02 9.34,26.11 34.03,44.59 62.84,44.59 1.14,0 2.29,-0.03 3.45,-0.08 30.24,-1.55 54.48,-23.02 61.39,-50.97 9.33,26.06 34,44.54 62.79,44.54 1.15,0 2.3,-0.03 3.46,-0.09 22.33,-1.14 41.55,-13.08 52.86,-30.51 -10.35,-14.95 -26.84,-26.06 -43.96,-30.31 -37.4,-9.28 -91.4,-18.33 -144.89,-18.33"
             style="fill:#d0ea7f;fill-opacity:1;fill-rule:nonzero;stroke:none"
             id="path330" />
        </g>
      </g>
      <g
         transform="matrix(0.13333333,0,0,-0.13333333,0,666.66667)"
         id="g332"
         style="opacity:1;stop-opacity:1">
        <g
           id="g334"
           clip-path="url(#clipPath338)">
          <path
             inkscape:connector-curvature="0"
             d="m 2465.1,4107.21 c -38.69,203.04 -275.72,279.47 -451.95,212.12 -88.76,-33.92 -167.9,-97.18 -204.97,-186.12 -33.96,-81.46 -43.8,-169.22 -37.24,-256.18 -4.67,-14.09 -5.37,-30.12 -0.52,-47.42 44.03,-156.69 296.95,-116.09 413.99,-94.54 167.75,30.9 314.2,196.32 280.69,372.14"
             style="fill:#9ad322;fill-opacity:1;fill-rule:nonzero;stroke:none"
             id="path340" />
          <path
             inkscape:connector-curvature="0"
             d="m 2144.24,4069.07 c 52.19,0 52.19,80.93 0,80.93 -52.19,0 -52.19,-80.93 0,-80.93"
             style="fill:#883122;fill-opacity:1;fill-rule:nonzero;stroke:none"
             id="path342" />
          <path
             inkscape:connector-curvature="0"
             d="m 2137.44,3995.13 c 0,-28.18 -36.54,-51.02 -81.63,-51.02 -45.08,0 -81.63,22.84 -81.63,51.02 0,28.17 36.55,51.01 81.63,51.01 45.09,0 81.63,-22.84 81.63,-51.01"
             style="fill:#f8a39c;fill-opacity:1;fill-rule:nonzero;stroke:none"
             id="path344" />
          <path
             inkscape:connector-curvature="0"
             d="m 2282.19,4047.23 c 77.19,-107.39 252.39,-116 291.64,28.47 2.05,7.56 -9.4,12.83 -12.92,5.45 -53.67,-112.22 -187.61,-124.92 -263.04,-24.76 -6.91,9.17 -22.58,0.44 -15.68,-9.16"
             style="fill:#3b3c3e;fill-opacity:1;fill-rule:nonzero;stroke:none"
             id="path346" />
        </g>
      </g>
      <g
         transform="matrix(0.13333333,0,0,-0.13333333,0,666.66667)"
         id="g348"
         style="opacity:1;stop-opacity:1">
        <g
           id="g350"
           clip-path="url(#clipPath354)">
          <path
             inkscape:connector-curvature="0"
             d="m 711.703,3704.44 c 19.82,353.33 331.987,637.26 589.647,637.26 153.61,0 272.52,-75.72 386.49,-208.22 84.24,-100.94 178.39,-239.75 213.07,-384.87 0,0 22.95,-53.62 17.99,-53.62 0,0 -414.39,-362.81 -1207.197,9.45"
             style="fill:#b3be1b;fill-opacity:1;fill-rule:nonzero;stroke:none"
             id="path356" />
          <path
             inkscape:connector-curvature="0"
             d="m 1459.01,4299.84 c 0,-126.3 -102.39,-228.69 -228.69,-228.69 -126.3,0 -228.69,102.39 -228.69,228.69 0,126.3 102.39,228.68 228.69,228.68 126.3,0 228.69,-102.38 228.69,-228.68"
             style="fill:#ddd418;fill-opacity:1;fill-rule:nonzero;stroke:none"
             id="path358" />
          <path
             inkscape:connector-curvature="0"
             d="m 1826.2,3700.73 c 0,-104.95 -85.08,-190.04 -190.04,-190.04 -104.95,0 -190.04,85.09 -190.04,190.04 0,104.96 85.09,190.04 190.04,190.04 104.96,0 190.04,-85.08 190.04,-190.04"
             style="fill:#ddd418;fill-opacity:1;fill-rule:nonzero;stroke:none"
             id="path360" />
          <path
             inkscape:connector-curvature="0"
             d="m 1201.33,3836.01 c 0,-76.48 -62.01,-138.5 -138.5,-138.5 -76.486,0 -138.498,62.02 -138.498,138.5 0,76.49 62.012,138.51 138.498,138.51 76.49,0 138.5,-62.02 138.5,-138.51"
             style="fill:#ddd418;fill-opacity:1;fill-rule:nonzero;stroke:none"
             id="path362" />
          <path
             inkscape:connector-curvature="0"
             d="m 937.219,4042.15 c 0,-76.49 -62.016,-138.5 -138.508,-138.5 -76.488,0 -138.5,62.01 -138.5,138.5 0,76.49 62.012,138.5 138.5,138.5 76.492,0 138.508,-62.01 138.508,-138.5"
             style="fill:#ddd418;fill-opacity:1;fill-rule:nonzero;stroke:none"
             id="path364" />
          <path
             inkscape:connector-curvature="0"
             d="m 1430.01,3987.41 c 0,-37.35 -30.28,-67.63 -67.64,-67.63 -37.35,0 -67.63,30.28 -67.63,67.63 0,37.36 30.28,67.64 67.63,67.64 37.36,0 67.64,-30.28 67.64,-67.64"
             style="fill:#ddd418;fill-opacity:1;fill-rule:nonzero;stroke:none"
             id="path366" />
        </g>
      </g>
      <path
         inkscape:connector-curvature="0"
         d="m 261.68133,176.02935 c 0.712,4.148 -1.196,8.36533 -4.272,9.34133 -55.53867,17.656 -113.152,17.656 -168.691066,0 -3.075599,-0.976 -4.985466,-5.19333 -4.272933,-9.34133 0.712534,-4.14933 3.691067,-6.688 6.664,-5.744 53.963999,17.156 109.945329,17.156 163.909329,0 2.97067,-0.944 5.952,1.59467 6.66267,5.744"
         style="opacity:1;fill:#798e27;fill-opacity:1;fill-rule:nonzero;stroke:none;stroke-width:0.133333;stop-opacity:1"
         id="path368" />
    </g>
  </g>
</svg>
